<svg xmlns="http://www.w3.org/2000/svg" width="424" height="424" fill="none"><path fill="#142A6F" d="M201.96 57.249H22.1v179.86h179.86z"/><path fill="#93CA88" d="M132.441 136.172H74.667v6.462h57.774z"/><path fill="#FFD200" d="M142.88 118.169H91.228v6.462h51.652zM167.404 186.407h-26.941v6.462h26.941zM140.183 168.226h-26.941v6.462h26.941z"/><path fill="#93CA88" d="M160.069 151.8H91.228v6.462h68.841z"/><path fill="#fff" d="M79.118 151.8H53.23v6.462h25.89zM104.898 168.777h-25.89v6.462h25.89zM80.374 203.444h-25.89v6.462h25.89zM62.549 136.172h-25.89v6.462h25.89zM33.87 71.19a3.044 3.044 0 1 0 0-6.089 3.044 3.044 0 0 0 0 6.089"/><path fill="#93CA88" d="M42.935 71.19a3.044 3.044 0 1 0 0-6.089 3.044 3.044 0 0 0 0 6.089"/><path fill="#FFD200" d="M51.482 71.19a3.044 3.044 0 1 0 0-6.089 3.044 3.044 0 0 0 0 6.089"/><path fill="#fff" d="M62.549 87.005h-25.89v6.462h25.89zM79.118 103.176H53.23v6.462h25.89z"/><path fill="#FFD200" d="M142.88 103.176H91.228v6.462h51.652z"/><path fill="#fff" d="M79.118 118.169H53.23v6.462h25.89z"/><path fill="#93CA88" d="M126.242 87.005h-53.34v6.462h53.34z"/><path fill="#fff" d="M63.278 186.407h-25.89v6.462h25.89z"/><path fill="#93CA88" d="M126.972 186.407h-53.34v6.462h53.34zM143.973 203.41H90.634v6.461h53.339zM175.265 87.005h-37.872v6.462h37.872z"/><path fill="#000001" d="M179.522 139.403s-16.604 4.435-9.311 28.823c7.293 24.397 12.194 62.701-10.134 68.341h48.251l-3.951-61.879z" opacity=".08"/><path fill="#FFD200" d="M339.217 38.38h-91.72v63.058h91.72z"/><path fill="#fff" d="M281.036 82.29c-.458 0-.925-.153-1.315-.458l-13.754-10.871a2.1 2.1 0 0 1-.806-1.654c0-.644.288-1.255.789-1.662l13.754-11.066a2.12 2.12 0 0 1 2.985.322 2.12 2.12 0 0 1-.322 2.985l-11.677 9.396 11.66 9.218a2.12 2.12 0 0 1 .348 2.984 2.1 2.1 0 0 1-1.671.806zM305.933 82.29c-.628 0-1.247-.28-1.671-.806a2.13 2.13 0 0 1 .348-2.984l11.66-9.218-11.677-9.396a2.12 2.12 0 0 1-.322-2.985 2.12 2.12 0 0 1 2.985-.322l13.754 11.066c.5.407.797 1.018.789 1.662 0 .645-.297 1.255-.806 1.654l-13.754 10.871c-.39.305-.857.458-1.315.458zM287.709 82.29c-.297 0-.594-.06-.882-.195a2.126 2.126 0 0 1-1.051-2.815l10.015-21.938a2.13 2.13 0 0 1 2.815-1.052 2.126 2.126 0 0 1 1.051 2.816l-10.014 21.937a2.12 2.12 0 0 1-1.934 1.238z"/><path fill="#E6E6E6" d="M404.207 139.886h-156.71v90.634h156.71z"/><path fill="#142A6F" d="M274.26 177.8a9.1 9.1 0 1 0 0-18.199 9.1 9.1 0 0 0 0 18.199"/><path fill="#93CA88" d="M274.26 209.507a9.1 9.1 0 1 0 0-18.199 9.1 9.1 0 0 0 0 18.199"/><path fill="#fff" d="M377.436 162.494h-82.12v11.075h82.12zM377.436 194.54h-82.12v11.075h82.12z" opacity=".59"/><path fill="#93CA88" d="M148.934 242.07s-26.033 17.036-47.988 39.279-39.305 31.512-30.096 60.785h266.993s3.893-19.199-13.814-30.146c-17.706-10.948-38.897-57.834-91.685-76.142z"/><path fill="#fff" d="M148.934 242.07s-26.033 17.036-47.988 39.279-39.305 31.512-30.096 60.785h266.993s3.893-19.199-13.814-30.146c-17.706-10.948-38.897-57.834-91.685-76.142z" opacity=".39"/><path fill="#F4A28C" d="M218.233 170.244s2.34-5.333 5.52-4.358 5.987 14.95-5.198 14.221zM198.644 194.328l-6.53 35.09h23.787l-4.198-35.09z"/><path fill="#F4A28C" d="M190.096 163.189s-5.046 36.303 12.059 39.551c17.104 3.248 19.444-39.551 19.444-39.551s2.765-13.093-6.716-21.607-29.171-.051-24.795 21.607z"/><path fill="#FFD200" d="m189.723 170.244-1.755-4.799a84 84 0 0 0-4.512-10.168c-3.035-5.809-7.411-17.392 1.34-24.278 12.033-9.481 16.044 2.561 23.702-6.377 7.657-8.938 18.232 3.095 19.69 7.835s11.669 8.022 8.387 17.868-3.341 20.131-15.162 18.452-24.456-11.159-24.456-11.159-3.384 5.198-7.225 12.626z"/><path fill="#fff" d="M197.482 184.355a6.53 6.53 0 1 0 0-13.06 6.53 6.53 0 0 0 0 13.06M211.864 184.932a6.53 6.53 0 1 0-.001-13.061 6.53 6.53 0 0 0 .001 13.061"/><path fill="#93CA88" d="M137.393 353.777s-50.253-115.023 54.721-124.36h23.787s100.632 14.493 50.557 121.926z"/><path fill="#F4A28C" d="M189.723 170.244s-2.341-5.333-5.521-4.358-4.876 15.747 6.318 15.018l-.797-10.651z"/><path fill="#000001" d="M197.457 200.696s7.131 4.325 12.796-.356c0 0 .398 10.846-14.23 8.064z" opacity=".08"/><path fill="#93CA88" d="M73.632 336.766s6.41-19.326 23.184-21.514 75.108 8.752 75.108 8.752v18.13H70.927z"/><path fill="#fff" d="M73.632 336.766s6.41-19.326 23.184-21.514 75.108 8.752 75.108 8.752v18.13H70.927z" opacity=".39"/><path fill="#93CA88" d="M335.503 336.427s-6.411-19.326-23.185-21.514c-16.773-2.188-75.107 8.751-75.107 8.751v18.13h100.997z"/><path fill="#000001" d="M158.092 284.436h-17.63l13.475 52.568-3.053 16.773 22.964-.729 5.784-48.489z" opacity=".08"/><path fill="#fff" d="M335.503 336.427s-6.411-19.326-23.185-21.514c-16.773-2.188-75.107 8.751-75.107 8.751v18.13h100.997z" opacity=".39"/><path fill="#FFD200" d="m169.566 323.41-14.492-62.905h100.013l-16.256 67.857-1.408 13.433h-65.211z"/><path fill="#fff" d="M205.962 298.979a8.667 8.667 0 1 0 0-17.334 8.667 8.667 0 0 0 0 17.334"/><path fill="#E6E6E6" d="M356.151 339.683H48.429v63.091h307.722z"/></svg>