<svg xmlns="http://www.w3.org/2000/svg" width="428" height="428" fill="none"><path fill="#000001" d="M38.315 340.372c0-1.841-38.075-106.495 10.93-180.779 16.564-25.115 60.075-93.287 161.417-83.648 66.596 6.334 270.008 31.834 167.972 263.22l-52.986 7.635-189.878-5.05-97.455-1.387z" opacity=".03"/><path fill="#93CA88" d="M365.965 319.434s-15.39-4.135-18.789-18.421c0 0 23.797-4.914 24.576 19.662z" opacity=".58"/><path fill="#93CA88" d="M367.84 317.901s-10.811-16.931-1.429-32.844c0 0 18.156 11.427 10.203 32.844z" opacity=".73"/><path fill="#93CA88" d="M370.605 317.902s5.598-17.951 22.735-21.418c0 0 3.262 11.625-11.016 21.418z"/><path fill="#142A6F" d="m359.46 317.542 3.201 21.306h19.628l2.8-21.306z"/><path fill="#E6E6E6" d="m314.289 338.848 15.074-51.095h-73.222l-10.623 41.687-26.528 1.421v7.987z"/><path fill="#E6E6E6" d="M393.469 338.848H27.846v15.921h365.623zM393.469 354.77H27.846v14.252h365.623z"/><path fill="#93CA88" d="M93.672 251.339s28.881-20.758 62.582-16.461c33.692 4.297 46.618 12.763 49.015 52.362 2.388 39.598-16.247 81.782-16.247 81.782l-55.247-.514z"/><path fill="#000001" d="M114.533 240.63s27.922 14.578 30.781 52.156 7.918 64.526 48.279 64.329l-4.571 11.915-55.247-.513-40.103-117.169s12.729-8.013 20.861-10.709z" opacity=".08"/><path fill="#142A6F" d="M21.974 368.508h111.785s2.585-63.181-17.343-99.459c-19.928-36.277-147.18-32.528-94.451 99.459z"/><path fill="#F4A28C" d="m123.033 218.742 6.874 17.351-15.374 4.537-4.246-25.842z"/><path fill="#F4A28C" d="M104.218 201.349c2.851-7.156 12.318-8.714 17.651-3.142 5.838 6.112 12.908 15.853 5.076 21.272-11.984 8.294-23.206-6.865-23.206-6.865s-1.678-5.838.479-11.265"/><path fill="#F4A28C" d="M108.618 212.023s-3.852-1.199-3.732 2.73 5.846 3.467 6.634 1.13c.796-2.337-2.911-3.86-2.911-3.86zM157.35 266.918c-2.782-16.786 16.144-28.625 30.063-18.832 8.945 6.292 17.428 16.101 22.033 31.389 12.66 42.073 35.353 67.248 93.552 52.953l3.484 15.005s-128.596 43.502-149.132-80.515"/><path fill="#FFD200" d="M101.41 208.411s3.082 13.584 10.23 13.559c7.147-.026 6.582-4.606 5.119-13.559-1.464-8.954 9.159-6.301 7.729-16.513-1.429-10.212-2.114-9.801-11.47-9.193s-21.203 8.517-11.608 25.697z"/><path fill="#F4A28C" d="M307.219 330.459s6.933-4.006 13.011-2.448c6.231 1.6 6.865 10.289 1.087 13.122l-11.556 5.675-2.551-16.349z"/><path fill="#fff" d="m263.605 294.721-9.185 32.931h52.687l8.997-32.931z"/><path fill="#93CA88" d="m171.234 308.948 41.371-19.979s-5.239-45.351-41.371-48.338c-36.131-2.988-12.882 55.477 0 68.317"/><path fill="#fff" d="m171.234 308.948 41.371-19.979s-5.239-45.351-41.371-48.338c-36.131-2.988-12.882 55.477 0 68.317" opacity=".2"/><path fill="#A5A5A5" d="m277.849 303.606-3.672 13.885 20.826-6.942z"/><path fill="#CE8172" d="m114.533 240.63 6.24-1.84-4.263-18.413s-8.363-2.927-8.252-13.952c0 0-10.409-8.946 1.404-23.198 0 0-10.554 1.883-11.778 12.54 0 0-.463 6.052 3.518 12.644 0 0 3.098 13.576 10.229 13.559l2.893 18.66z" opacity=".31"/><path fill="#142A6F" d="m306.842 329.859-10.693 2.686 4.594 18.289 10.693-2.685z"/><path fill="#FFD200" d="M303.777 347.382a7.011 7.011 0 1 0 0-14.022 7.011 7.011 0 0 0 0 14.022"/><path fill="#CE8172" d="M186.326 301.655s20.86 62.805 112.666 42.329l1.319 5.239s-92.02 28.436-129.077-40.275z" opacity=".31"/><path fill="#000001" d="m186.325 301.655-15.091 7.293s-31.424-43.819-14.167-64.551c0 0 6.831 39.658 29.258 57.258" opacity=".08"/><path fill="#142A6F" d="M386.33 51.84H189.758v150.416H386.33z"/><path fill="#F4A28C" d="m295.543 66.306 12.258 27.016-15.956 11.838-3.176-25.415z"/><path fill="#CE8172" d="M288.754 80.464s10.024-1.558 11.308-4.52c0 0 8.423 15.194-9.681 16.675l-1.618-12.155z" opacity=".31"/><path fill="#93CA88" d="M282.104 114.302s-81.2 68.643-111.169-13.097l-13.944 8.397s9.801 103.448 131.764 56.496z"/><path fill="#fff" d="M282.104 114.302s-81.2 68.643-111.169-13.097l-13.944 8.397s9.801 103.448 131.764 56.496z" opacity=".2"/><path fill="#93CA88" d="M291.845 105.16s-31.15 23.052-21.315 49.536c9.836 26.485 32.143 47.56 32.143 47.56h83.649s-.891-20.647-3.33-43.237c-3.51-32.511-15.314-70.175-75.191-65.698z"/><path fill="#000001" d="M338 114.302s-11.162 11.23-6.514 25.466c4.648 14.235 19.979 59.5-14.406 55.22l27.725 3.356 28.967-3.356 12.755-30.165-22.513-31.741z" opacity=".08"/><path fill="#fff" d="M217.621 72.075v41.097l41.567-22.325z"/><path fill="#FFD200" d="m268.621 202.256-12.874-50.119h71.827l6.951 40.891 29.498 1.396v7.832z"/><path fill="#fff" d="M296.929 182.927a6.103 6.103 0 1 0 .001-12.207 6.103 6.103 0 0 0-.001 12.207"/><path fill="#F4A28C" d="M159.447 108.13s-11.616-11.359-6.035-20.381c5.573-9.031 18.918-7.619 17.523 13.456z"/><path fill="#93CA88" d="M358.613 103.782c10.605 4.665 21.699 12.703 27.914 26.51l-.206 71.956h-14.406l-6.061-12.378s7.422-29.952-16.033-52.961c-3.774-3.698-6.805-7.233-9.244-10.554-9.005-12.293 4.074-28.72 18.027-22.582z"/><path fill="#fff" d="M358.613 103.782c10.605 4.665 21.699 12.703 27.914 26.51l-.206 71.956h-14.406l-6.061-12.378s7.422-29.952-16.033-52.961c-3.774-3.698-6.805-7.233-9.244-10.554-9.005-12.293 4.074-28.72 18.027-22.582z" opacity=".2"/><path fill="#F4A28C" d="M300.02 68.54c-.094 2.474-.137 4.94.042 7.413.249 3.381-.299 8.509-5.512 10.058-8.047 2.388-11.599-10.358-11.599-10.358s-6.454-11.607 2.251-14.226c7.833-2.354 15.263-4.229 14.818 7.113"/><path fill="#FFD200" d="M278.089 57.3c-1.832 1.01-3.373 2.492-4.075 4.46-.659 1.85-.804 4.05.899 5.83 3.681 3.852 8.03 8.063 8.03 8.063s-3.339-6.556 2.533-6.565 10.931 3.912 14.535-.548 5.941-6.89 4.314-11.17c-1.635-4.28-1.378-9.648-7.772-7.26-6.394 2.397-3.903-2.533-7.533-5.7-3.629-3.168-9.51-2.705-8.988 1.754.454 3.895 1.712 9.117-1.943 11.137"/><path fill="#F4A28C" d="M283.516 76.124s-.89-3.895-4.306-3.364c-3.415.53-1.284 7.755 4.306 3.364M298.821 76.176s-1.609-3.655 1.455-5.265 5.65 5.462-1.455 5.265M371.915 202.256c0-7.413-5.581-13.679-12.96-14.424-4.134-.41-7.901.206-8.885 3.45-2.44 8.021 13.944 10.974 13.944 10.974z"/><path fill="#fff" d="M306.106 89.58s-16.778 5.95-17.445 18.208c0 0 17.274-1.044 25.44-14.792 0 0-2.397-4.51-7.995-3.415"/></svg>