<svg width="1404" height="1425" viewBox="0 0 1404 1425" fill="none" xmlns="http://www.w3.org/2000/svg">
<g id="logo-vector">
<g id="logo-outside" filter="url(#filter0_f_160_172)">
<path d="M280.366 975.149C119.655 717.723 201.344 400.472 460.394 238.747C605.632 148.075 797.969 131.901 955.726 199.305C973.29 206.641 980.872 227.293 973.966 244.592L911.92 401.399C904.855 419.389 884.843 428.93 866.855 421.859C773.621 385.017 680.378 376.518 583.977 436.701C436.616 528.699 405.985 694.231 496.683 839.511C587.382 984.791 750.348 1031.23 897.709 939.234C985.616 884.353 1029.59 802.587 1039.82 692.297C1041.79 672.765 1058.09 657.277 1078.04 658.988L1244.53 671.354C1263.1 672.746 1278.33 688.626 1277.63 707.362C1269.34 883.153 1176.99 1040.58 1021.98 1137.35C762.508 1299.34 440.812 1232.15 280.366 975.149Z" fill="#D53DFB" fill-opacity="0.5"/>
</g>
<g id="logo-middle" filter="url(#filter1_f_160_172)">
<path d="M389.808 906.977C270.812 716.371 331.298 481.468 523.107 361.721C630.645 294.584 773.059 282.609 889.867 332.516C902.872 337.948 908.486 353.24 903.372 366.049L857.432 482.154C852.2 495.474 837.383 502.539 824.064 497.303C755.031 470.024 685.99 463.731 614.612 508.293C505.501 576.411 482.821 698.977 549.977 806.547C617.133 914.117 737.798 948.503 846.909 880.384C911.998 839.749 944.558 779.207 952.133 697.544C953.593 683.082 965.661 671.614 980.436 672.881L1103.7 682.038C1117.46 683.068 1128.73 694.826 1128.21 708.699C1122.08 838.86 1053.7 955.423 938.925 1027.07C746.802 1147.02 508.608 1097.27 389.808 906.977Z" fill="#2E98A4" fill-opacity="0.5"/>
</g>
<g id="logo-inside" filter="url(#filter2_f_160_172)">
<path d="M457.41 864.868C364.181 715.535 411.569 531.498 561.844 437.681C646.097 385.082 757.672 375.7 849.187 414.8C859.376 419.056 863.774 431.036 859.768 441.072L823.775 532.036C819.676 542.471 808.067 548.006 797.632 543.904C743.548 522.532 689.457 517.602 633.535 552.514C548.051 605.882 530.282 701.908 582.896 786.185C635.51 870.461 730.047 897.402 815.531 844.034C866.526 812.197 892.035 764.765 897.97 700.785C899.113 689.455 908.568 680.47 920.144 681.463L1016.72 688.637C1027.49 689.444 1036.33 698.656 1035.92 709.525C1031.11 811.501 977.54 902.823 887.622 958.96C737.1 1052.93 550.485 1013.95 457.41 864.868Z" fill="#F8FFAA" fill-opacity="0.5"/>
</g>
</g>
<defs>
<filter id="filter0_f_160_172" x="117.909" y="77.9192" width="1239.74" height="1227.13" filterUnits="userSpaceOnUse" color-interpolation-filters="sRGB">
<feFlood flood-opacity="0" result="BackgroundImageFix"/>
<feBlend mode="normal" in="SourceGraphic" in2="BackgroundImageFix" result="shape"/>
<feGaussianBlur stdDeviation="40" result="effect1_foregroundBlur_160_172"/>
</filter>
<filter id="filter1_f_160_172" x="248.754" y="221.873" width="959.477" height="950.135" filterUnits="userSpaceOnUse" color-interpolation-filters="sRGB">
<feFlood flood-opacity="0" result="BackgroundImageFix"/>
<feBlend mode="normal" in="SourceGraphic" in2="BackgroundImageFix" result="shape"/>
<feGaussianBlur stdDeviation="40" result="effect1_foregroundBlur_160_172"/>
</filter>
<filter id="filter2_f_160_172" x="329.577" y="310.793" width="786.359" height="779.04" filterUnits="userSpaceOnUse" color-interpolation-filters="sRGB">
<feFlood flood-opacity="0" result="BackgroundImageFix"/>
<feBlend mode="normal" in="SourceGraphic" in2="BackgroundImageFix" result="shape"/>
<feGaussianBlur stdDeviation="40" result="effect1_foregroundBlur_160_172"/>
</filter>
</defs>
</svg>
