<svg xmlns="http://www.w3.org/2000/svg" width="1405" height="1426" fill="none"><g filter="url(#a)"><path fill="#D53DFB" fill-opacity=".2" d="M280.895 975.399c-160.712-257.425-79.022-574.676 180.028-736.402 145.237-90.672 337.575-106.845 495.332-39.442 17.564 7.336 25.146 27.988 18.24 45.287L912.449 401.65c-7.065 17.989-27.077 27.53-45.066 20.46-93.233-36.843-186.477-45.341-282.877 14.842-147.361 91.998-177.992 257.53-87.294 402.81 90.699 145.28 253.665 191.718 401.026 99.722 87.907-54.88 131.882-136.646 142.112-246.937 1.97-19.531 18.27-35.02 38.22-33.309l166.48 12.367c18.58 1.391 33.8 17.272 33.11 36.008-8.29 175.79-100.64 333.217-255.65 429.987-259.474 161.99-581.169 94.8-741.615-162.201"/></g><g filter="url(#b)"><path fill="#2E98A4" fill-opacity=".5" d="M390.337 907.228c-118.996-190.607-58.511-425.51 133.298-545.257 107.539-67.136 249.952-79.112 366.761-29.204 13.005 5.432 18.619 20.723 13.505 33.532L857.96 482.404c-5.231 13.32-20.048 20.385-33.368 15.15-69.033-27.28-138.073-33.572-209.451 10.989-109.111 68.118-131.792 190.684-64.635 298.254s187.821 141.956 296.932 73.838c65.089-40.636 97.649-101.178 105.224-182.84 1.459-14.462 13.528-25.931 28.302-24.664l123.266 9.157c13.76 1.03 25.03 12.789 24.51 26.662-6.14 130.161-74.52 246.723-189.286 318.38-192.124 119.94-430.317 70.19-549.117-120.102"/></g><g filter="url(#c)"><path fill="#F8FFAA" fill-opacity=".3" d="M457.939 865.118c-93.229-149.332-45.841-333.37 104.434-427.187 84.253-52.599 195.828-61.981 287.342-22.88 10.189 4.255 14.587 16.236 10.581 26.271l-35.992 90.964c-4.099 10.436-15.708 15.971-26.143 11.869-54.085-21.372-108.175-26.302-164.097 8.61-85.485 53.368-103.254 149.393-50.639 233.67 52.614 84.277 147.15 111.217 232.635 57.849 50.995-31.836 76.504-79.269 82.439-143.248 1.143-11.33 10.598-20.315 22.173-19.323l96.578 7.174c10.77.807 19.61 10.019 19.2 20.888-4.81 101.976-58.381 193.299-148.299 249.435-150.522 93.97-337.137 54.99-430.212-94.092"/></g><defs><filter id="a" width="1239.74" height="1227.13" x="118.438" y="78.17" color-interpolation-filters="sRGB" filterUnits="userSpaceOnUse"><feFlood flood-opacity="0" result="BackgroundImageFix"/><feBlend in="SourceGraphic" in2="BackgroundImageFix" result="shape"/><feGaussianBlur result="effect1_foregroundBlur_160_172" stdDeviation="40"/></filter><filter id="b" width="959.477" height="950.135" x="249.283" y="222.124" color-interpolation-filters="sRGB" filterUnits="userSpaceOnUse"><feFlood flood-opacity="0" result="BackgroundImageFix"/><feBlend in="SourceGraphic" in2="BackgroundImageFix" result="shape"/><feGaussianBlur result="effect1_foregroundBlur_160_172" stdDeviation="40"/></filter><filter id="c" width="786.359" height="779.04" x="330.106" y="311.043" color-interpolation-filters="sRGB" filterUnits="userSpaceOnUse"><feFlood flood-opacity="0" result="BackgroundImageFix"/><feBlend in="SourceGraphic" in2="BackgroundImageFix" result="shape"/><feGaussianBlur result="effect1_foregroundBlur_160_172" stdDeviation="40"/></filter></defs></svg>