<svg xmlns="http://www.w3.org/2000/svg" width="164" height="20" fill="none"><g clip-path="url(#a)"><path fill="#fff" d="M153.925 15.113a.647.647 0 0 1 .893.073c.819.967 1.988 1.565 3.157 1.565 1.077 0 1.905-.414 1.905-1.169 0-.709-.708-.957-2.337-1.325-2.927-.654-4.989-1.592-4.989-4.335 0-2.504 2.31-4.124 5.228-4.124 2.374 0 3.967 1.022 4.97 2.255.23.286.193.7-.083.93l-1.279 1.058a.653.653 0 0 1-.911-.082c-.599-.672-1.464-1.142-2.614-1.142-1.151 0-1.951.405-1.951 1.077 0 .727.846.957 2.503 1.362 2.982.727 4.878 1.685 4.878 4.335s-2.421 4.151-5.283 4.151c-2.375 0-4.326-.985-5.578-2.568a.66.66 0 0 1 .092-.93l1.399-1.122zM137 14.56V6.728c0-.359.294-.653.653-.653h2.264c.359 0 .654.294.654.653v6.912c0 1.85 1.196 2.844 2.761 2.844 1.564 0 2.991-.985 2.991-2.844V6.728c0-.359.295-.653.653-.653h2.265c.359 0 .653.294.653.653v12.066a.656.656 0 0 1-.653.654h-2.126a.657.657 0 0 1-.654-.626l-.037-.856c-.699.948-2.135 1.822-4.151 1.822-3.092 0-5.264-2.015-5.264-5.237zM126.213 12.241l-3.811-5.126a.652.652 0 0 1 .525-1.04h2.476c.211 0 .414.1.534.276l2.181 3.092a.653.653 0 0 0 1.067 0l2.173-3.092a.65.65 0 0 1 .533-.276h2.467c.534 0 .847.607.525 1.04l-3.792 5.126a.65.65 0 0 0 0 .773l3.93 5.403a.657.657 0 0 1-.525 1.04h-2.402a.63.63 0 0 1-.534-.285l-2.347-3.387a.654.654 0 0 0-1.077 0l-2.319 3.378a.66.66 0 0 1-.534.285h-2.393a.653.653 0 0 1-.534-1.031l3.893-5.403a.66.66 0 0 0 0-.773zM107.98 12.757c.009-4.087 2.908-6.95 6.884-6.95 3.682 0 6.48 2.467 6.48 6.517 0 .304-.019.607-.046.92a.66.66 0 0 1-.654.599h-8.154c-.497 0-.829.552-.571.975.626 1.031 1.887 1.694 3.203 1.694 1.15 0 2.163-.46 2.982-1.418.212-.248.598-.276.865-.073l1.519 1.141c.294.22.34.644.119.939-1.316 1.73-3.433 2.65-5.568 2.65-4.289 0-7.05-3.092-7.05-6.994z"/><path fill="#93CA88" d="M117.147 11.44c.469 0 .801-.497.598-.92-.478-1.012-1.519-1.712-2.844-1.712s-2.494.681-3.01 1.694c-.22.432.111.938.59.938zM89.397 19.347V1.73c0-.359.295-.653.654-.653h2.448c.193 0 .386.092.506.24l9.103 11.301c.386.48 1.159.203 1.159-.405V1.73c0-.359.295-.653.654-.653h2.457c.359 0 .654.294.654.653v17.617a.656.656 0 0 1-.654.653h-2.503a.67.67 0 0 1-.506-.24L94.321 8.588c-.386-.478-1.16-.202-1.16.414v10.355a.656.656 0 0 1-.653.653h-2.457a.656.656 0 0 1-.654-.653z"/><path fill="#fff" d="M88.357 18.804V1.186c0-.359.295-.653.654-.653h2.448c.193 0 .386.092.506.24l9.103 11.301c.386.48 1.159.203 1.159-.404V1.187c0-.359.295-.653.654-.653h2.457c.359 0 .654.294.654.653v17.617a.656.656 0 0 1-.654.653h-2.503a.67.67 0 0 1-.506-.24L93.281 8.045c-.386-.478-1.16-.202-1.16.414v10.355a.656.656 0 0 1-.653.653h-2.457a.656.656 0 0 1-.654-.653zM74.8 6.084h2.172c.35 0 .635.276.653.626l.046 1.196c.681-1.39 1.98-2.108 3.489-2.108.46 0 .883.074 1.205.148a.636.636 0 0 1 .488.69l-.166 1.878a.644.644 0 0 1-.782.58 5 5 0 0 0-.948-.102c-1.574 0-3.23.847-3.23 3.608v6.204a.656.656 0 0 1-.654.653H74.8a.656.656 0 0 1-.654-.654V6.729c0-.359.295-.653.654-.653zM58.84 12.757c.01-4.087 2.909-6.95 6.885-6.95 3.681 0 6.48 2.467 6.48 6.517 0 .304-.02.607-.047.92a.66.66 0 0 1-.653.599H63.35c-.497 0-.828.552-.57.975.625 1.031 1.886 1.694 3.203 1.694 1.15 0 2.162-.46 2.982-1.418.211-.248.598-.276.865-.073l1.518 1.141c.295.22.34.644.12.939-1.316 1.73-3.433 2.65-5.568 2.65-4.29 0-7.05-3.092-7.05-6.994z"/><path fill="#93CA88" d="M68.008 11.44c.469 0 .8-.497.598-.92-.479-1.012-1.519-1.712-2.844-1.712-1.326 0-2.495.681-3.01 1.694-.22.432.11.938.59.938z"/><path fill="#fff" d="M44.215 12.757c.019-4.087 2.909-6.95 6.885-6.95 3.681 0 6.48 2.467 6.48 6.517 0 .304-.02.607-.047.92a.66.66 0 0 1-.653.599h-8.155c-.497 0-.828.552-.57.975.625 1.031 1.886 1.694 3.203 1.694 1.15 0 2.162-.46 2.982-1.418.211-.248.598-.276.865-.073l1.518 1.141c.295.22.34.644.12.939-1.316 1.73-3.433 2.65-5.568 2.65-4.29 0-7.05-3.092-7.05-6.994z"/><path fill="#93CA88" d="M53.383 11.44c.469 0 .8-.497.598-.92-.479-1.012-1.519-1.712-2.844-1.712-1.326 0-2.495.681-3.01 1.694-.22.432.11.938.59.938z"/><path fill="#fff" d="M35.987 6.084h2.172c.35 0 .635.276.654.626l.046 1.196c.68-1.39 1.978-2.108 3.479-2.108.46 0 .883.074 1.215.148.33.073.515.368.487.69l-.165 1.878a.644.644 0 0 1-.783.58 5 5 0 0 0-.948-.102c-1.573 0-3.23.847-3.23 3.608v6.204a.656.656 0 0 1-.654.653h-2.273a.656.656 0 0 1-.654-.654V6.729c0-.359.295-.653.654-.653zM20.359 15.619c0-2.522 2.31-4.28 5.863-4.28.92 0 1.951.157 2.816.46v-.303c0-1.473-1.196-2.55-2.9-2.55-1.297 0-2.29.534-3.1 1.252a.645.645 0 0 1-.894-.028l-1.16-1.16a.65.65 0 0 1-.009-.91c1.031-1.087 2.845-2.302 5.284-2.302 3.911 0 6.35 2.08 6.35 5.422v7.583a.656.656 0 0 1-.653.654h-2.099a.656.656 0 0 1-.653-.654v-.837c-.727 1.086-2.108 1.767-3.792 1.767-3.037 0-5.053-1.629-5.053-4.114"/><path fill="#93CA88" d="M23.746 15.426c0 1.003.865 1.647 2.227 1.647 1.51 0 2.743-.893 3.01-2.264a.67.67 0 0 0-.451-.764 6.4 6.4 0 0 0-2.062-.322c-1.629 0-2.733.681-2.733 1.703zM1.04 10.244c0-5.568 4.363-9.72 9.977-9.72 3.148 0 6.305 1.62 8.109 4.207a.644.644 0 0 1-.157.883l-2.494 1.841a.644.644 0 0 1-.902-.12c-1.095-1.481-2.467-2.521-4.556-2.521-3.194 0-5.283 2.282-5.283 5.43s2.09 5.458 5.283 5.458c1.905 0 3.387-.847 4.62-2.467.221-.285.626-.368.92-.147l2.477 1.813a.655.655 0 0 1 .165.884C17.36 18.445 14.386 20 11.026 20c-5.614 0-9.977-4.179-9.977-9.756z"/><path fill="#fff" d="M0 9.728C0 4.151 4.363 0 9.977 0c3.148 0 6.305 1.62 8.109 4.206a.644.644 0 0 1-.157.884l-2.494 1.84a.644.644 0 0 1-.902-.12C13.438 5.33 12.066 4.29 9.977 4.29c-3.194 0-5.283 2.283-5.283 5.43 0 3.148 2.09 5.458 5.283 5.458 1.905 0 3.387-.847 4.62-2.466.221-.286.626-.369.92-.148l2.477 1.813a.655.655 0 0 1 .165.884c-1.84 2.66-4.813 4.215-8.173 4.215C4.363 19.475 0 15.297 0 9.728"/></g><defs><clipPath id="a"><path fill="#fff" d="M0 0h163.295v20H0z"/></clipPath></defs></svg>