<svg xmlns="http://www.w3.org/2000/svg" width="428" height="428" fill="none"><path fill="#E6E6E6" d="M83.802 141.685c24.409 0 44.195-19.787 44.195-44.195s-19.786-44.196-44.195-44.196S39.607 73.081 39.607 97.49s19.787 44.195 44.195 44.195"/><path fill="#fff" d="M83.802 127.227c16.424 0 29.738-13.314 29.738-29.737 0-16.424-13.314-29.738-29.738-29.738-16.423 0-29.737 13.314-29.737 29.738 0 16.423 13.314 29.737 29.737 29.737"/><path fill="#A5A5A5" d="M92.028 106.135c-.385 0-.77-.128-1.078-.393l-8.227-6.968a1.67 1.67 0 0 1-.59-1.276V76.92c0-.924.753-1.669 1.669-1.669s1.67.745 1.67 1.67v19.807l7.626 6.463a1.67 1.67 0 0 1-1.078 2.944z"/><path fill="#E6E6E6" d="M409.527 52.413h-106.76V190.05h106.76z"/><path fill="#fff" d="M389.882 96.856h-67.478v70.526h67.478z"/><path fill="#000001" d="M306.645 123.958s42.954.624 47.482 66.091h-27.049l-20.442-66.091z" opacity=".08"/><path fill="#A5A5A5" d="M373.156 73.223h-35.644v10.289h35.644z"/><path fill="#93CA88" d="M213.435 119.378s-36.354 11.119-32.485 43.348-57.566 155.098-108.43 30.217l-16.615 9.107s27.7 96.643 91.147 72.974 81.894-82.672 66.383-155.646"/><path fill="#fff" d="M147.052 275.024c63.447-23.668 81.894-82.672 66.383-155.646 0 0-36.354 11.119-32.485 43.348" opacity=".2"/><path fill="#F4A28C" d="m194.534 84.573-1.326 4.494a1.58 1.58 0 0 0 1.754 2.011l3.792-.582z"/><path fill="#F4A28C" d="M192.3 77.562s2.817 10.957 7.097 17.403c1.737 2.61 5.315 3.33 7.901 1.558 3.21-2.2 6.916-6.112 6.12-12.164l-.086-10.443s-.282-6.54-7.823-8.749c-7.542-2.208-15.254 5.813-13.209 12.395"/><path fill="#F4A28C" d="m215.079 78.358 17.496 33.556-19.14 7.464-5.727-31.544z"/><path fill="#F4A28C" d="M205.911 84.838s-1.37-4.134 1.832-4.904 5.204 5.195 1.207 7.224z"/><path fill="#CE8172" d="M209.043 95.17s3.981-3.347 3.981-8.474c0 0 4.99 8.166-2.885 14.526z" opacity=".31"/><path fill="#142A6F" d="M411.993 288.113H15.999v29.917h395.994z"/><path fill="#93CA88" d="m213.435 119.378 19.149-7.473s47.165-12.378 75.114 14.064c27.948 26.434-10.572 162.144-10.572 162.144H195.391l-20.707-55.007a84.65 84.65 0 0 1 13.996-83.785l24.764-29.943z"/><path fill="#000001" d="M272.833 137.551s-23.052 27.195-10.461 83.588c7.157 32.049-41.233 46.378-41.233 46.378l-2.508 20.596h87.56v-36.671l-33.35-113.883z" opacity=".08"/><path fill="#fff" d="M232.575 111.914s18.841 20.484 4.109 57.497c-14.732 37.014-22.282 63.447-20.013 83.092l-24.705-3.775s-13.276-32.862-4.297-68.737c8.988-35.883 12.686-41.499 25.757-60.596l19.149-7.473z" opacity=".38"/><path fill="#93CA88" d="M272.833 137.551c1.678-16.598 21.1-24.405 33.812-13.602 12.001 10.195 23.146 28.967 21.7 63.455-1.755 41.79-4.999 68.994-7.413 84.47-1.387 8.877-9.93 14.775-18.721 12.909l-93.116-19.825 2.714-17.703 80.789 7.131s-24.696-68.078-19.756-116.827z"/><path fill="#fff" d="M272.833 137.551c1.678-16.598 21.1-24.405 33.812-13.602 12.001 10.195 23.146 28.967 21.7 63.455-1.755 41.79-4.999 68.994-7.413 84.47-1.387 8.877-9.93 14.775-18.721 12.909l-93.116-19.825 2.714-17.703 80.789 7.131s-24.696-68.078-19.756-116.827z" opacity=".2"/><path fill="#142A6F" d="M411.993 317.833H15.999v70.808h395.994z"/><path fill="#fff" d="M411.993 317.833H15.999v70.808h395.994z" opacity=".11"/><path fill="#FFD200" d="M112.307 288.112 99.536 206.39h114.181l8.372 71.1h40.284v10.622zM191.795 78.281c2.859 2.68 7.653 4.794 14.98 1.207l10.289 2.097s4.982-4.494 2.851-15.416c-2.132-10.914-10.606-17.368-23.198-11.599-7.147 3.27-8.885 8.877-9.039 13.105-.146 3.955 1.224 7.893 4.117 10.598z"/><path fill="#FFD200" d="M210.379 53.783s-4.579-13.234 8.295-14.364 20.475 13.961-1.087 22.864l-7.208-8.509z"/><path fill="#142A6F" d="M209.651 50.136s11.633.65 11.479 10.495l-3.133 2.85-9.715-10.511 1.361-2.834z"/><path fill="#fff" d="m232.575 111.914-19.148 7.472s-7.79 11.18 5.392 12.181c13.183 1.002 17.411-12.634 13.756-19.653M156.622 256.826a9.57 9.57 0 0 0 9.57-9.57 9.57 9.57 0 0 0-9.57-9.57 9.57 9.57 0 0 0-9.57 9.57c0 5.285 4.285 9.57 9.57 9.57M216.474 147.121a4.666 4.666 0 1 0-.001-9.331 4.666 4.666 0 0 0 .001 9.331M211.15 172.056a4.666 4.666 0 1 0-.001-9.331 4.666 4.666 0 0 0 .001 9.331M205.62 197.205a4.665 4.665 0 1 0 0-9.33 4.665 4.665 0 0 0 0 9.33"/><path fill="#F4A28C" d="M70.714 193.944s-3.595-24.156-11.154-24.156 0 14.355 0 14.355-14.184 4.528-1.618 16.803l12.772-6.994z"/><path fill="#93CA88" d="M376.477 271.814h-83.211v16.299h83.211zM384.635 255.507h-83.212v16.299h83.212z"/><path fill="#000001" d="M376.477 271.814h-83.211v16.299h83.211z" opacity=".17"/><path fill="#000001" d="M384.635 255.507h-83.212v16.299h83.212zM102.626 226.172s15.322 53.877 100.126 61.941h-90.445zM98.457 236.282l1.07 33.521s4.648 3.304 10.803 5.709l-5.265-33.666-6.617-5.564z" opacity=".08"/></svg>